<?xml version="1.0" encoding="UTF-8" standalone="no"?>
<svg
   xmlns:dc="http://purl.org/dc/elements/1.1/"
   xmlns:cc="http://creativecommons.org/ns#"
   xmlns:rdf="http://www.w3.org/1999/02/22-rdf-syntax-ns#"
   xmlns:svg="http://www.w3.org/2000/svg"
   xmlns="http://www.w3.org/2000/svg"
   id="svg857"
   version="1.1"
   viewBox="0 0 67.733331 67.733331"
   height="256"
   width="256">
  <defs
     id="defs851" />
  <metadata
     id="metadata854">
    <rdf:RDF>
      <cc:Work
         rdf:about="">
        <dc:format>image/svg+xml</dc:format>
        <dc:type
           rdf:resource="http://purl.org/dc/dcmitype/StillImage" />
        <dc:title></dc:title>
      </cc:Work>
    </rdf:RDF>
  </metadata>
  <g
     transform="translate(0,-229.26668)"
     id="layer1">
    <g
       style="fill:#002057;fill-opacity:1;stroke:none;stroke-opacity:1"
       transform="matrix(1.151749,0,0,1.151749,-28.981792,213.34907)"
       id="g3897">
      <path
         d="m 81.659731,34.766124 c -1.481104,-3.501377 -3.600742,-6.645611 -6.299462,-9.345963 -2.700351,-2.699537 -5.8454,-4.819177 -9.345964,-6.300278 -3.62721,-1.534855 -7.478397,-2.31226 -11.446868,-2.31226 -3.967657,0 -7.819659,0.777405 -11.446055,2.31226 -3.501377,1.481101 -6.645204,3.600741 -9.345556,6.300278 -2.69913,2.700352 -4.819177,5.844994 -6.29987,9.345963 -1.534449,3.626396 -2.312668,7.477177 -2.312668,11.445648 v 23.430061 h 5.00121 V 46.212179 c 0,-3.295317 0.645869,-6.490455 1.916839,-9.498267 1.229024,-2.904782 2.989079,-5.515543 5.231295,-7.756945 2.240588,-2.241809 4.851349,-4.002271 7.756945,-5.230888 3.007405,-1.272192 6.202543,-1.917246 9.49786,-1.917246 3.295317,0 6.49127,0.645054 9.498265,1.917246 2.905597,1.228617 5.515139,2.989079 7.758166,5.230888 2.241407,2.241402 4.001871,4.852163 5.231296,7.756945 1.270967,3.007812 1.915211,6.20295 1.915211,9.498267 v 23.430062 h 5.002023 V 46.212179 c 0,-3.968471 -0.779443,-7.819252 -2.312667,-11.446055"
         id="path3063"
         style="fill:#002057;fill-opacity:1;stroke:none;stroke-opacity:1" />
      <path
         d="m 62.833827,27.173293 c -2.614017,-1.135361 -5.394594,-1.712001 -8.265983,-1.712001 -2.800123,0 -5.517172,0.548541 -8.077436,1.632184 -2.471896,1.044141 -4.6909,2.54031 -6.595521,4.445338 -1.905436,1.905436 -3.40079,4.124033 -4.446153,6.595521 -1.082829,2.559043 -1.63137,5.27772 -1.63137,8.077844 v 19.922578 l 4.999988,-4.804923 V 46.212179 c 0,-2.128192 0.416598,-4.189597 1.237577,-6.129648 0.793287,-1.875708 1.929055,-3.560425 3.376763,-5.006911 1.446486,-1.447708 3.131203,-2.583884 5.006504,-3.376357 1.940458,-0.821386 4.002678,-1.237576 6.129648,-1.237576 2.180317,0 4.290591,0.43696 6.271365,1.298254 1.916021,0.831974 3.623954,2.021497 5.079396,3.533548 l 3.603591,-3.466355 c -1.914799,-1.991769 -4.164755,-3.55676 -6.688369,-4.653841"
         id="path3065"
         style="fill:#002057;fill-opacity:1;stroke:none;stroke-opacity:1" />
      <polygon
         points="132.648,14.317 130.762,14.317 130.762,13.01 136.094,13.01 136.094,14.317 134.209,14.317 134.209,19.88 132.648,19.88 "
         id="polygon3067"
         transform="matrix(0.40723148,0,0,0.40723148,23.521738,15.817643)"
         style="fill:#002057;fill-opacity:1;stroke:none;stroke-opacity:1" />
      <path
         d="m 79.164622,21.115725 h 0.669081 l 0.467503,1.256716 0.1686,0.489085 h 0.0167 l 0.16696,-0.489085 0.455693,-1.256716 h 0.663385 v 2.79768 h -0.586821 v -1.026223 c 0,-0.06882 0.0015,-0.14416 0.0082,-0.227236 0.0057,-0.08308 0.01262,-0.167372 0.02242,-0.251261 0.0085,-0.08348 0.0167,-0.167372 0.02565,-0.248819 0.0082,-0.08185 0.01586,-0.156377 0.02565,-0.225199 h -0.01749 l -0.231306,0.647906 -0.428819,1.084864 h -0.253702 l -0.428813,-1.084864 -0.222757,-0.647906 h -0.01834 c 0.01019,0.06882 0.01834,0.143346 0.02689,0.225199 0.0085,0.08145 0.01591,0.165336 0.02321,0.248819 0.0074,0.08389 0.01342,0.168186 0.01993,0.251261 0.0065,0.08267 0.0082,0.158413 0.0082,0.227236 v 1.026223 h -0.579078 v -2.79768 z"
         id="path3069"
         style="fill:#002057;fill-opacity:1;stroke:none;stroke-opacity:1" />
      <path
         d="m 59.764932,51.162077 c -1.308842,1.373185 -3.151157,2.232851 -5.197902,2.232851 -3.966842,0 -7.183563,-3.2155 -7.183563,-7.183156 0,-3.967657 3.216313,-7.183563 7.183563,-7.183563 2.025976,0 3.851595,0.840932 5.157993,2.188869 l 3.581192,-3.425224 c -2.207193,-2.29027 -5.305003,-3.718431 -8.739185,-3.718431 -6.703845,0 -12.138349,5.434504 -12.138349,12.138349 0,6.703437 5.434504,12.138348 12.138349,12.138348 3.446807,0 6.555612,-1.438749 8.765658,-3.744493 z"
         id="path3071"
         style="fill:#002057;fill-opacity:1;stroke:none;stroke-opacity:1" />
      <path
         d="M 73.724014,38.134335 C 73.241039,36.992051 72.657065,35.907186 71.985947,34.87852 l -3.691959,3.546986 c 0.304609,0.534287 0.583153,1.085271 0.823829,1.657025 0.309494,0.731795 0.560756,1.480286 0.754193,2.242624 h 5.116863 c -0.272028,-1.433863 -0.691075,-2.834739 -1.264859,-4.19082"
         id="path3073"
         style="fill:#002057;fill-opacity:1;stroke:none;stroke-opacity:1" />
      <path
         d="m 70.350915,46.050101 c 0,0.05375 0.0035,0.107916 0.0035,0.161671 v 15.117655 l 5.00159,4.804923 V 46.212179 c 0,-0.05416 -0.0035,-0.108324 -0.004,-0.161671 h -5.000899 z"
         id="path3075"
         style="fill:#002057;fill-opacity:1;stroke:none;stroke-opacity:1" />
    </g>
  </g>
</svg>
